<mxfile host="app.diagrams.net" modified="2023-06-04T22:05:09.285Z" agent="Mozilla/5.0 (Windows NT 10.0; Win64; x64) AppleWebKit/537.36 (KHTML, like Gecko) Chrome/114.0.0.0 Safari/537.36" etag="gn0mP4GEVvxPpsbQE03q" version="21.3.6" type="device">
  <diagram name="‫עמוד-1‬" id="NUrAkZDPFoZhEmMQ6Kh-">
    <mxGraphModel dx="1020" dy="516" grid="1" gridSize="10" guides="1" tooltips="1" connect="1" arrows="1" fold="1" page="1" pageScale="1" pageWidth="827" pageHeight="1169" math="0" shadow="0">
      <root>
        <mxCell id="0" />
        <mxCell id="1" parent="0" />
        <mxCell id="JvzIcEkVGaskj1KuOXou-1" value="guiApp" style="rounded=1;whiteSpace=wrap;html=1;" vertex="1" parent="1">
          <mxGeometry x="230" y="40" width="120" height="400" as="geometry" />
        </mxCell>
        <mxCell id="JvzIcEkVGaskj1KuOXou-2" value="ServerMushApp" style="rounded=1;whiteSpace=wrap;html=1;" vertex="1" parent="1">
          <mxGeometry x="520" y="40" width="120" height="400" as="geometry" />
        </mxCell>
        <mxCell id="JvzIcEkVGaskj1KuOXou-4" value="HTTP /1.1 200 OK\r\n&lt;br&gt;Content-Type: audio/mpeg\r\n&lt;br&gt;Content-Length: ?\r\n\r\n&lt;br&gt;data_of_song" style="endArrow=classic;html=1;rounded=0;" edge="1" parent="1">
          <mxGeometry x="0.0853" y="19" width="50" height="50" relative="1" as="geometry">
            <mxPoint x="520" y="260" as="sourcePoint" />
            <mxPoint x="350" y="280" as="targetPoint" />
            <mxPoint as="offset" />
          </mxGeometry>
        </mxCell>
        <mxCell id="JvzIcEkVGaskj1KuOXou-6" value="HTTP /1.1 200 OK\r\n&lt;br&gt;Content-Type: text/plain\r\n&lt;br&gt;Content-Length: ?\r\n\r\n&lt;br&gt;fully_delivered#name#?" style="endArrow=classic;html=1;rounded=0;entryX=1.008;entryY=0.879;entryDx=0;entryDy=0;entryPerimeter=0;" edge="1" parent="1">
          <mxGeometry x="0.0022" y="37" width="50" height="50" relative="1" as="geometry">
            <mxPoint x="519" y="340" as="sourcePoint" />
            <mxPoint x="350" y="366" as="targetPoint" />
            <mxPoint as="offset" />
          </mxGeometry>
        </mxCell>
      </root>
    </mxGraphModel>
  </diagram>
</mxfile>
